<svg xmlns="http://www.w3.org/2000/svg" xmlns:svg="http://www.w3.org/2000/svg" id="svg2" width="793.701" height="1122.52" version="1.1"><defs id="defs4"><marker id="Arrow2Mend" orient="auto" refX="0" refY="0" style="overflow:visible"><path id="path5166" d="M -5.5798962,-2.5815905 1.4126653,-0.01024849 -5.5798966,2.561093 c 1.117119,-1.518119 1.1106821,-3.5951692 4e-7,-5.1426835 z" style="fill-rule:evenodd;stroke-width:.40000001;stroke-linejoin:round"/></marker><marker id="Arrow1Send" orient="auto" refX="0" refY="0" style="overflow:visible"><path id="path5154" d="M -1.28,0 -2.3466667,1.0666667 1.3866667,0 -2.3466667,-1.0666667 Z" style="fill-rule:evenodd;stroke:#000;stroke-width:.21333334pt"/></marker><marker id="Arrow2Lend" orient="auto" refX="0" refY="0" style="overflow:visible"><path id="path6686" d="M -11.403143,-4.732916 1.416553,-0.01878889 -11.403144,4.6953372 c 2.0480517,-2.7832182 2.0362508,-6.5911436 10e-7,-9.4282532 z" style="fill-rule:evenodd;stroke-width:.73333335;stroke-linejoin:round"/></marker><marker id="Arrow1Lend" orient="auto" refX="0" refY="0" style="overflow:visible"><path id="path3979" d="M -10.666667,0 -14.933333,4.2666667 0,0 -14.933333,-4.2666667 Z" style="fill-rule:evenodd;stroke:#000;stroke-width:.85333335pt"/></marker><marker id="Arrow2Lend-9" orient="auto" refX="0" refY="0" style="overflow:visible"><path id="path6686-7" d="M -11.403143,-4.732916 1.416553,-0.01878889 -11.403144,4.6953372 c 2.0480517,-2.7832182 2.0362508,-6.5911436 10e-7,-9.4282532 z" style="fill-rule:evenodd;stroke-width:.73333335;stroke-linejoin:round"/></marker><marker id="Arrow2Lend-5" orient="auto" refX="0" refY="0" style="overflow:visible"><path id="path6686-3" d="M -11.403143,-4.732916 1.416553,-0.01878889 -11.403144,4.6953372 c 2.0480517,-2.7832182 2.0362508,-6.5911436 10e-7,-9.4282532 z" style="fill-rule:evenodd;stroke-width:.73333335;stroke-linejoin:round"/></marker><marker id="Arrow2Lend-8" orient="auto" refX="0" refY="0" style="overflow:visible"><path id="path6686-37" d="M -11.403143,-4.732916 1.416553,-0.01878889 -11.403144,4.6953372 c 2.0480517,-2.7832182 2.0362508,-6.5911436 10e-7,-9.4282532 z" style="fill-rule:evenodd;stroke-width:.73333335;stroke-linejoin:round"/></marker><marker id="marker7167" orient="auto" refX="0" refY="0" style="overflow:visible"><path id="path7169" d="M -11.403143,-4.732916 1.416553,-0.01878889 -11.403144,4.6953372 c 2.0480517,-2.7832182 2.0362508,-6.5911436 10e-7,-9.4282532 z" style="fill-rule:evenodd;stroke-width:.73333335;stroke-linejoin:round"/></marker><marker id="marker7171" orient="auto" refX="0" refY="0" style="overflow:visible"><path id="path7173" d="M -11.403143,-4.732916 1.416553,-0.01878889 -11.403144,4.6953372 c 2.0480517,-2.7832182 2.0362508,-6.5911436 10e-7,-9.4282532 z" style="fill-rule:evenodd;stroke-width:.73333335;stroke-linejoin:round"/></marker><marker id="Arrow2Lend-7" orient="auto" refX="0" refY="0" style="overflow:visible"><path id="path6686-4" d="M -11.403143,-4.732916 1.416553,-0.01878889 -11.403144,4.6953372 c 2.0480517,-2.7832182 2.0362508,-6.5911436 10e-7,-9.4282532 z" style="fill-rule:evenodd;stroke-width:.73333335;stroke-linejoin:round"/></marker><marker id="marker7610" orient="auto" refX="0" refY="0" style="overflow:visible"><path id="path7612" d="M -11.403143,-4.732916 1.416553,-0.01878889 -11.403144,4.6953372 c 2.0480517,-2.7832182 2.0362508,-6.5911436 10e-7,-9.4282532 z" style="fill-rule:evenodd;stroke-width:.73333335;stroke-linejoin:round"/></marker><marker id="marker7614" orient="auto" refX="0" refY="0" style="overflow:visible"><path id="path7616" d="M -11.403143,-4.732916 1.416553,-0.01878889 -11.403144,4.6953372 c 2.0480517,-2.7832182 2.0362508,-6.5911436 10e-7,-9.4282532 z" style="fill-rule:evenodd;stroke-width:.73333335;stroke-linejoin:round"/></marker><marker id="marker7618" orient="auto" refX="0" refY="0" style="overflow:visible"><path id="path7620" d="M -11.403143,-4.732916 1.416553,-0.01878889 -11.403144,4.6953372 c 2.0480517,-2.7832182 2.0362508,-6.5911436 10e-7,-9.4282532 z" style="fill-rule:evenodd;stroke-width:.73333335;stroke-linejoin:round"/></marker><marker id="marker7622" orient="auto" refX="0" refY="0" style="overflow:visible"><path id="path7624" d="M -11.403143,-4.732916 1.416553,-0.01878889 -11.403144,4.6953372 c 2.0480517,-2.7832182 2.0362508,-6.5911436 10e-7,-9.4282532 z" style="fill-rule:evenodd;stroke-width:.73333335;stroke-linejoin:round"/></marker><marker id="marker7626" orient="auto" refX="0" refY="0" style="overflow:visible"><path id="path7628" d="M -11.403143,-4.732916 1.416553,-0.01878889 -11.403144,4.6953372 c 2.0480517,-2.7832182 2.0362508,-6.5911436 10e-7,-9.4282532 z" style="fill-rule:evenodd;stroke-width:.73333335;stroke-linejoin:round"/></marker><marker id="Arrow2Lend-58" orient="auto" refX="0" refY="0" style="overflow:visible"><path id="path6686-43" d="M -11.403143,-4.732916 1.416553,-0.01878889 -11.403144,4.6953372 c 2.0480517,-2.7832182 2.0362508,-6.5911436 10e-7,-9.4282532 z" style="fill-rule:evenodd;stroke-width:.73333335;stroke-linejoin:round"/></marker><marker id="Arrow2Lend-1" orient="auto" refX="0" refY="0" style="overflow:visible"><path id="path6686-38" d="M -11.403143,-4.732916 1.416553,-0.01878889 -11.403144,4.6953372 c 2.0480517,-2.7832182 2.0362508,-6.5911436 10e-7,-9.4282532 z" style="fill-rule:evenodd;stroke-width:.73333335;stroke-linejoin:round"/></marker><marker id="Arrow2Lend-97" orient="auto" refX="0" refY="0" style="overflow:visible"><path id="path6686-9" d="M -11.403143,-4.732916 1.416553,-0.01878889 -11.403144,4.6953372 c 2.0480517,-2.7832182 2.0362508,-6.5911436 10e-7,-9.4282532 z" style="fill-rule:evenodd;stroke-width:.73333335;stroke-linejoin:round"/></marker><marker id="marker7724" orient="auto" refX="0" refY="0" style="overflow:visible"><path id="path7726" d="M -11.403143,-4.732916 1.416553,-0.01878889 -11.403144,4.6953372 c 2.0480517,-2.7832182 2.0362508,-6.5911436 10e-7,-9.4282532 z" style="fill-rule:evenodd;stroke-width:.73333335;stroke-linejoin:round"/></marker><marker id="marker7728" orient="auto" refX="0" refY="0" style="overflow:visible"><path id="path7730" d="M -11.403143,-4.732916 1.416553,-0.01878889 -11.403144,4.6953372 c 2.0480517,-2.7832182 2.0362508,-6.5911436 10e-7,-9.4282532 z" style="fill-rule:evenodd;stroke-width:.73333335;stroke-linejoin:round"/></marker><marker id="Arrow2Lend-75" orient="auto" refX="0" refY="0" style="overflow:visible"><path id="path6686-1" d="M -11.403143,-4.732916 1.416553,-0.01878889 -11.403144,4.6953372 c 2.0480517,-2.7832182 2.0362508,-6.5911436 10e-7,-9.4282532 z" style="fill-rule:evenodd;stroke-width:.73333335;stroke-linejoin:round"/></marker><marker id="marker7822" orient="auto" refX="0" refY="0" style="overflow:visible"><path id="path7824" d="M -11.403143,-4.732916 1.416553,-0.01878889 -11.403144,4.6953372 c 2.0480517,-2.7832182 2.0362508,-6.5911436 10e-7,-9.4282532 z" style="fill-rule:evenodd;stroke-width:.73333335;stroke-linejoin:round"/></marker><marker id="marker7826" orient="auto" refX="0" refY="0" style="overflow:visible"><path id="path7828" d="M -11.403143,-4.732916 1.416553,-0.01878889 -11.403144,4.6953372 c 2.0480517,-2.7832182 2.0362508,-6.5911436 10e-7,-9.4282532 z" style="fill-rule:evenodd;stroke-width:.73333335;stroke-linejoin:round"/></marker><marker id="marker7830" orient="auto" refX="0" refY="0" style="overflow:visible"><path id="path7832" d="M -11.403143,-4.732916 1.416553,-0.01878889 -11.403144,4.6953372 c 2.0480517,-2.7832182 2.0362508,-6.5911436 10e-7,-9.4282532 z" style="fill-rule:evenodd;stroke-width:.73333335;stroke-linejoin:round"/></marker><marker id="marker7834" orient="auto" refX="0" refY="0" style="overflow:visible"><path id="path7836" d="M -11.403143,-4.732916 1.416553,-0.01878889 -11.403144,4.6953372 c 2.0480517,-2.7832182 2.0362508,-6.5911436 10e-7,-9.4282532 z" style="fill-rule:evenodd;stroke-width:.73333335;stroke-linejoin:round"/></marker><marker id="marker7838" orient="auto" refX="0" refY="0" style="overflow:visible"><path id="path7840" d="M -11.403143,-4.732916 1.416553,-0.01878889 -11.403144,4.6953372 c 2.0480517,-2.7832182 2.0362508,-6.5911436 10e-7,-9.4282532 z" style="fill-rule:evenodd;stroke-width:.73333335;stroke-linejoin:round"/></marker><marker id="marker7838-1" orient="auto" refX="0" refY="0" style="overflow:visible"><path id="path7840-7" d="M -11.403143,-4.732916 1.416553,-0.01878889 -11.403144,4.6953372 c 2.0480517,-2.7832182 2.0362508,-6.5911436 10e-7,-9.4282532 z" style="fill-rule:evenodd;stroke-width:.73333335;stroke-linejoin:round"/></marker><marker id="marker7838-6" orient="auto" refX="0" refY="0" style="overflow:visible"><path id="path7840-75" d="M -11.403143,-4.732916 1.416553,-0.01878889 -11.403144,4.6953372 c 2.0480517,-2.7832182 2.0362508,-6.5911436 10e-7,-9.4282532 z" style="fill-rule:evenodd;stroke-width:.73333335;stroke-linejoin:round"/></marker><marker id="Arrow2Mend-4" orient="auto" refX="0" refY="0" style="overflow:visible"><path id="path5166-6" d="M -5.5798962,-2.5815905 1.4126653,-0.01024849 -5.5798966,2.561093 c 1.117119,-1.518119 1.1106821,-3.5951692 4e-7,-5.1426835 z" style="fill-rule:evenodd;stroke-width:.40000001;stroke-linejoin:round"/></marker></defs><metadata id="metadata7"/><g id="layer1"><path style="fill:none;stroke:#606dab;stroke-width:1.06666672px;stroke-linecap:butt;stroke-linejoin:miter;stroke-opacity:1" id="path5893-6" d="m 472.27122,435.52212 12.4771,83.00152 -12.32294,-0.52631 12.84923,-82.47521 z"/><rect style="fill:#fff;stroke:#000;stroke-width:1.04448783;stroke-linecap:round;stroke-linejoin:bevel;stroke-miterlimit:4;stroke-dasharray:none;stroke-opacity:1" id="rect2985-37-3" width="127.259" height="83.07" x="485.196" y="435.172"/><text style="font-style:normal;font-variant:normal;font-weight:400;font-stretch:normal;font-size:12.80000019px;line-height:0%;font-family:monospace;-inkscape-font-specification:Monospace;text-align:center;letter-spacing:0;word-spacing:0;text-anchor:middle;fill:#000;fill-opacity:1;stroke:none;stroke-width:1.06666672" id="text4698" x="549.008" y="472.711" xml:space="preserve"><tspan id="tspan4700" x="549.008" y="472.711" style="font-size:14.9333334px;line-height:1.25;font-family:monospace;stroke-width:1.06666672">Layer 3</tspan><tspan id="tspan4702" x="549.008" y="491.378" style="font-size:14.9333334px;line-height:1.25;font-family:monospace;stroke-width:1.06666672">8 Nodes</tspan></text><path style="fill:none;stroke:#606dab;stroke-width:1.06666672px;stroke-linecap:butt;stroke-linejoin:miter;stroke-opacity:1" id="path5893" d="m 332.13002,435.42395 12.47709,83.00151 -12.32294,-0.5263 12.84924,-82.47521 z"/><rect style="fill:#fff;stroke:#000;stroke-width:1.04448783;stroke-linecap:round;stroke-linejoin:bevel;stroke-miterlimit:4;stroke-dasharray:none;stroke-opacity:1" id="rect2985-37-3-4" width="127.259" height="83.07" x="345.2" y="435.172"/><text style="font-style:normal;font-variant:normal;font-weight:400;font-stretch:normal;font-size:12.80000019px;line-height:0%;font-family:monospace;-inkscape-font-specification:Monospace;text-align:center;letter-spacing:0;word-spacing:0;text-anchor:middle;fill:#000;fill-opacity:1;stroke:none;stroke-width:1.06666672" id="text4698-5" x="409.012" y="472.711" xml:space="preserve"><tspan id="tspan4700-1" x="409.012" y="472.711" style="font-size:14.9333334px;line-height:1.25;font-family:monospace;stroke-width:1.06666672">Layer 2</tspan><tspan id="tspan4702-0" x="409.012" y="491.378" style="font-size:14.9333334px;line-height:1.25;font-family:monospace;stroke-width:1.06666672">512 Nodes</tspan></text><rect style="fill:#fff;stroke:#000;stroke-width:1.04448783;stroke-linecap:round;stroke-linejoin:bevel;stroke-miterlimit:4;stroke-dasharray:none;stroke-opacity:1" id="rect2985-37-3-4-8" width="127.259" height="83.07" x="205.203" y="435.172"/><text style="font-style:normal;font-variant:normal;font-weight:400;font-stretch:normal;font-size:12.80000019px;line-height:0%;font-family:monospace;-inkscape-font-specification:Monospace;text-align:center;letter-spacing:0;word-spacing:0;text-anchor:middle;fill:#000;fill-opacity:1;stroke:none;stroke-width:1.06666672" id="text4698-5-8" x="269.015" y="472.711" xml:space="preserve"><tspan id="tspan4700-1-6" x="269.015" y="472.711" style="font-size:14.9333334px;line-height:1.25;font-family:monospace;stroke-width:1.06666672">Layer 1</tspan><tspan id="tspan4702-0-0" x="269.015" y="491.378" style="font-size:14.9333334px;line-height:1.25;font-family:monospace;stroke-width:1.06666672">256 Nodes</tspan></text><rect style="fill:none;stroke:#ff3f37;stroke-width:2.21229529;stroke-linecap:round;stroke-linejoin:bevel;stroke-miterlimit:4;stroke-dasharray:none;stroke-opacity:1" id="rect4871" width="419.383" height="113.076" x="199.015" y="428.095"/><text style="font-style:normal;font-variant:normal;font-weight:400;font-stretch:normal;font-size:12.80000019px;line-height:0%;font-family:monospace;-inkscape-font-specification:Monospace;letter-spacing:0;word-spacing:0;fill:#dd2a2b;fill-opacity:1;stroke:none;stroke-width:1.06666672" id="text4873" x="303.71" y="534.369" xml:space="preserve"><tspan id="tspan4875" x="303.71" y="534.369" style="font-size:14.9333334px;line-height:1.25;font-family:monospace;stroke-width:1.06666672">Multi Layer Perceptron</tspan></text><text style="font-style:normal;font-variant:normal;font-weight:400;font-stretch:normal;font-size:12.80000019px;line-height:0%;font-family:monospace;-inkscape-font-specification:Monospace;text-align:center;letter-spacing:0;word-spacing:0;text-anchor:middle;fill:#000;fill-opacity:1;stroke:none;stroke-width:1.06666672" id="text4877" x="-483.266" y="663.292" transform="rotate(-90)" xml:space="preserve"><tspan id="tspan4883" x="-478.789" y="663.292" style="font-weight:700;font-size:14.9333334px;line-height:1.25;font-family:monospace;-inkscape-font-specification:'Monospace Bold';stroke-width:1.06666672">Classification </tspan><tspan style="font-weight:700;font-size:14.9333334px;line-height:1.25;font-family:monospace;-inkscape-font-specification:'Monospace Bold';stroke-width:1.06666672" id="tspan3077" x="-483.266" y="681.958">Map</tspan></text><text style="font-style:normal;font-variant:normal;font-weight:400;font-stretch:normal;font-size:12.80000019px;line-height:0%;font-family:monospace;-inkscape-font-specification:Monospace;letter-spacing:0;word-spacing:0;fill:#000;fill-opacity:1;stroke:none;stroke-width:1.06666672" id="text4885" x="127.992" y="465.949" xml:space="preserve"><tspan id="tspan4887" x="127.992" y="465.949" style="font-weight:700;font-size:14.9333334px;line-height:1.25;font-family:'Cambria Math';-inkscape-font-specification:'Cambria Math Bold';stroke-width:1.06666672;font-style:normal;font-stretch:normal;font-variant:normal">W<tspan style="font-weight:700;font-size:14.9333334px;font-family:'Cambria Math';-inkscape-font-specification:'Cambria Math Bold';baseline-shift:sub;stroke-width:1.06666672;font-style:normal;font-stretch:normal;font-variant:normal" id="tspan4889">r</tspan></tspan></text><text style="font-style:normal;font-variant:normal;font-weight:400;font-stretch:normal;font-size:12.80000019px;line-height:0%;font-family:monospace;-inkscape-font-specification:Monospace;letter-spacing:0;word-spacing:0;fill:#000;fill-opacity:1;stroke:none;stroke-width:1.06666672" id="text4891" x="117.399" y="513.843" xml:space="preserve"><tspan id="tspan4893" x="117.399" y="513.843" style="font-weight:700;font-size:14.9333334px;line-height:1.25;font-family:'Cambria Math';-inkscape-font-specification:'Cambria Math Bold';stroke-width:1.06666672;font-style:normal;font-stretch:normal;font-variant:normal">α<tspan style="font-weight:700;font-size:9.70680332px;font-family:'Cambria Math';-inkscape-font-specification:'Cambria Math Bold';baseline-shift:sub;stroke-width:1.06666672;font-style:normal;font-stretch:normal;font-variant:normal" id="tspan4895">ο</tspan> γ<tspan style="font-weight:700;font-size:9.70680332px;font-family:'Cambria Math';-inkscape-font-specification:'Cambria Math Bold';baseline-shift:sub;stroke-width:1.06666672;font-style:normal;font-stretch:normal;font-variant:normal" id="tspan4897">ο</tspan></tspan></text><path style="fill:none;stroke:#000;stroke-width:2.13333344;stroke-linecap:butt;stroke-linejoin:miter;stroke-miterlimit:4;stroke-dasharray:none;stroke-opacity:1" id="path4899" d="m 151.60853,460.68642 h 26.84139 v 50.52497 h -16.31535"/><path style="fill:none;stroke:#000;stroke-width:2.13333344;stroke-linecap:butt;stroke-linejoin:miter;stroke-miterlimit:4;stroke-dasharray:none;stroke-opacity:1;marker-end:url(#Arrow2Mend)" id="path4901" d="m 178.44992,483.3174 h 26.31509"/><path style="fill:none;stroke:#000;stroke-width:2.13333344;stroke-linecap:butt;stroke-linejoin:miter;stroke-miterlimit:4;stroke-dasharray:none;stroke-opacity:1;marker-end:url(#Arrow2Mend)" id="path4901-7" d="m 612.82209,475.96966 h 26.31509"/></g></svg>