<svg xmlns="http://www.w3.org/2000/svg" xmlns:svg="http://www.w3.org/2000/svg" id="svg2" width="100%" height="100%" fill="none" stroke="none" stroke-linecap="square" stroke-miterlimit="10" version="1.1" viewBox="0 0 1023.961 720.898"><metadata id="metadata155"/><defs id="defs153"><marker style="overflow:visible" id="Arrow1Lend" orient="auto" refX="0" refY="0"><path style="fill-rule:evenodd;stroke:#000;stroke-width:1pt" id="path4044" d="M 0.0,0.0 L 5.0,-5.0 L -12.5,0.0 L 5.0,5.0 L 0.0,0.0 z" transform="scale(0.8) rotate(180) translate(12.5,0)"/></marker><marker style="overflow:visible" id="marker7838" orient="auto" refX="0" refY="0"><path style="fill-rule:evenodd;stroke-width:.625;stroke-linejoin:round" id="path7840" d="M 8.7185878,4.0337352 -2.2072895,0.01601326 8.7185884,-4.0017078 c -1.7454984,2.3720609 -1.7354408,5.6174519 -6e-7,8.035443 z" transform="matrix(-1.1,0,0,-1.1,-1.1,0)"/></marker></defs><clipPath id="p.0"><path id="path5" d="m0 0l1023.96063 0l0 720.89764l-1023.96063 0l0 -720.89764z" clip-rule="nonzero"/></clipPath><rect id="rect5067" width="527.171" height="219.751" x="184.25" y="96.85" style="fill:none;stroke:#d6d7ef;stroke-width:2.29515266;stroke-linecap:round;stroke-linejoin:bevel;stroke-miterlimit:10;stroke-opacity:1;stroke-dasharray:none;stroke-dashoffset:0"/><path id="path135" d="m 174.05721,202.72076 -18.69653,0 0,180.48648 842.89165,0 0,-180.40986 -17.96283,0" style="stroke:#55679e;stroke-width:1.10292435000000011;stroke-linecap:butt;stroke-linejoin:round;stroke-opacity:1;stroke-dasharray:4.41169734999999985,3.30877301999999984"/><path id="path9" d="m 0,0 1023.9606,0 0,720.89764 -1023.9606,0 z" style="fill:#000;fill-opacity:0;fill-rule:nonzero"/><path id="path11" d="m 13.43832,165.72441 131.02362,0 0,73.88976 -131.02362,0 z" style="fill:#000;fill-opacity:0;fill-rule:nonzero"/><path id="path21" d="m 194.16269,165.72441 112.85037,0 0,73.88976 -112.85037,0 z" style="fill:#000;fill-opacity:0;fill-rule:nonzero"/><path id="path31" d="m 331.00262,165.72441 108.69293,0 0,73.88976 -108.69293,0 z" style="fill:#000;fill-opacity:0;fill-rule:nonzero"/><path id="path41" d="m 463.68506,165.72441 108.69287,0 0,73.88976 -108.69287,0 z" style="fill:#000;fill-opacity:0;fill-rule:nonzero"/><path id="path51" d="m 596.36755,165.72441 108.69293,0 0,73.88976 -108.69293,0 z" style="fill:#000;fill-opacity:0;fill-rule:nonzero"/><path id="path59" d="m 729.04987,165.72441 108.69293,0 0,73.88976 -108.69293,0 z" style="fill:#000;fill-opacity:0;fill-rule:nonzero"/><path id="path69" d="m 861.7323,164.33858 108.69287,0 0,76.66142 -108.69287,0 z" style="fill:#000;fill-opacity:0;fill-rule:nonzero"/><path id="path79" d="m 174.00803,95.267715 806.3307,0 0,214.803145 -806.3307,0 z" style="fill:#000;fill-opacity:0;fill-rule:nonzero"/><path id="path81" d="m 174.06342,67.269384 806.21992,0 0,265.062686 -806.21992,0 z" style="stroke:#000;stroke-width:1.11076999;stroke-linecap:butt;stroke-linejoin:round"/><path id="path83" d="m 307.01306,202.6693 24,0" style="fill:#000;fill-opacity:0;fill-rule:nonzero"/><path id="path89" d="m 439.69556,202.6693 24,0" style="fill:#000;fill-opacity:0;fill-rule:nonzero"/><path id="path95" d="m 572.3779,202.6693 24,0" style="fill:#000;fill-opacity:0;fill-rule:nonzero"/><path id="path101" d="m 705.0605,202.6693 24,0" style="fill:#000;fill-opacity:0;fill-rule:nonzero"/><path id="path107" d="m 837.7428,202.6693 24,0" style="fill:#000;fill-opacity:0;fill-rule:nonzero"/><path id="path113" d="m 144.46194,202.6693 49.70079,0" style="fill:#000;fill-opacity:0;fill-rule:nonzero"/><path id="path115" d="m 144.46194,202.6693 43.70079,0" style="stroke:#000;stroke-width:2;stroke-linecap:butt;stroke-linejoin:round;stroke-miterlimit:10;stroke-dasharray:none"/><path id="path117" d="m 187.50522,204.10186 4.53809,-1.65173 -4.53809,-1.65174 z" style="fill:#000;fill-rule:evenodd;stroke:#000;stroke-width:3.99999999;stroke-linecap:butt;stroke-miterlimit:10;stroke-dasharray:none"/><path id="path119" d="m -1.535433,33.312336 183.622043,0 0,73.889774 -183.622043,0 z" style="fill:#000;fill-opacity:0;fill-rule:nonzero"/><path id="path129" d="m 432.89764,114.21785 302.96063,0 0,42.70866 -302.96063,0 z" style="fill:#000;fill-opacity:0;fill-rule:nonzero"/><path id="path131" d="m 443.99931,80.766135 q 0,0.85937 -0.35938,1.51562 -0.34375,0.64063 -0.98437,1.07813 -0.625,0.42187 -1.51563,0.64062 -0.875,0.21875 -1.95312,0.21875 -0.46875,0 -0.95313,-0.0469 -0.48437,-0.0312 -0.92187,-0.0937 -0.4375,-0.0469 -0.82813,-0.125 -0.39062,-0.0781 -0.70312,-0.15625 l 0,-1.59375 q 0.6875,0.25 1.54687,0.40625 0.875,0.14062 1.98438,0.14062 0.79687,0 1.35937,-0.125 0.5625,-0.125 0.92188,-0.35937 0.35937,-0.25 0.51562,-0.59375 0.17188,-0.35938 0.17188,-0.8125 0,-0.5 -0.28125,-0.84375 -0.26563,-0.34375 -0.71875,-0.60938 -0.4375,-0.28125 -1.01563,-0.5 -0.57812,-0.23437 -1.17187,-0.46875 -0.59375,-0.25 -1.17188,-0.53125 -0.5625,-0.28125 -1.01562,-0.67187 -0.4375,-0.39063 -0.71875,-0.90625 -0.26563,-0.51563 -0.26563,-1.23438 0,-0.625 0.26563,-1.21875 0.26562,-0.60937 0.8125,-1.07812 0.54687,-0.46875 1.40625,-0.75 0.85937,-0.296884 2.04687,-0.296884 0.29688,0 0.65625,0.0312 0.35938,0.0312 0.71875,0.0781 0.375,0.0469 0.73438,0.125 0.35937,0.0625 0.65625,0.125 l 0,1.48437 q -0.71875,-0.20312 -1.4375,-0.29687 -0.70313,-0.10938 -1.375,-0.10938 -1.42188,0 -2.09375,0.46875 -0.65625,0.46875 -0.65625,1.26563 0,0.5 0.26562,0.85937 0.28125,0.34375 0.71875,0.625 0.45313,0.28125 1.01563,0.51563 0.57812,0.21875 1.17187,0.46875 0.59375,0.23437 1.15625,0.51562 0.57813,0.28125 1.01563,0.6875 0.45312,0.39063 0.71875,0.92188 0.28125,0.51562 0.28125,1.25 z m 9.99167,3.15625 q -0.54688,0.14062 -1.125,0.1875 -0.57813,0.0625 -1.1875,0.0625 -1.75,0 -2.625,-0.78125 -0.85938,-0.79688 -0.85938,-2.4375 l 0,-4.85938 -2.60937,0 0,-1.35937 2.60937,0 0,-2.5625 1.625,-0.421884 0,2.984384 4.17188,0 0,1.35937 -4.17188,0 0,4.71875 q 0,1 0.53125,1.5 0.53125,0.5 1.5625,0.5 0.45313,0 0.98438,-0.0625 0.53125,-0.0781 1.09375,-0.21875 l 0,1.39063 z m 8.74167,0.125 -0.0312,-1.25 q -0.76563,0.75 -1.54688,1.09375 -0.78125,0.32812 -1.65625,0.32812 -0.79687,0 -1.35937,-0.20312 -0.5625,-0.20313 -0.9375,-0.5625 -0.35938,-0.35938 -0.53125,-0.84375 -0.17188,-0.48438 -0.17188,-1.04688 0,-1.40625 1.04688,-2.1875 1.04687,-0.79687 3.07812,-0.79687 l 1.9375,0 0,-0.82813 q 0,-0.8125 -0.53125,-1.3125 -0.53125,-0.5 -1.60937,-0.5 -0.79688,0 -1.5625,0.1875 -0.76563,0.17188 -1.57813,0.48438 l 0,-1.45313 q 0.29688,-0.10937 0.67188,-0.21875 0.39062,-0.10937 0.79687,-0.1875 0.42188,-0.0781 0.875,-0.125 0.45313,-0.0625 0.92188,-0.0625 0.84375,0 1.51562,0.1875 0.6875,0.1875 1.15625,0.57813 0.46875,0.375 0.71875,0.95312 0.25,0.5625 0.25,1.34375 l 0,6.42188 -1.45312,0 z m -0.17188,-4.23438 -2.0625,0 q -0.59375,0 -1.03125,0.125 -0.4375,0.10938 -0.71875,0.34375 -0.28125,0.21875 -0.42187,0.53125 -0.125,0.29688 -0.125,0.6875 0,0.28125 0.0781,0.53125 0.0937,0.23438 0.28125,0.42188 0.1875,0.1875 0.48438,0.3125 0.29687,0.10937 0.71875,0.10937 0.5625,0 1.28125,-0.34375 0.71875,-0.34375 1.51562,-1.07812 l 0,-1.64063 z m 11.67917,3.89063 q -0.625,0.23437 -1.29687,0.34375 -0.65625,0.125 -1.35938,0.125 -2.21875,0 -3.40625,-1.1875 -1.1875,-1.20313 -1.1875,-3.5 0,-1.10938 0.34375,-2 0.34375,-0.90625 0.95313,-1.54688 0.625,-0.64062 1.48437,-0.98437 0.875,-0.34375 1.90625,-0.34375 0.73438,0 1.35938,0.10937 0.625,0.0937 1.20312,0.3125 l 0,1.54688 q -0.59375,-0.3125 -1.23437,-0.45313 -0.625,-0.15625 -1.28125,-0.15625 -0.625,0 -1.1875,0.25 -0.54688,0.23438 -0.96875,0.6875 -0.40625,0.4375 -0.65625,1.07813 -0.23438,0.64062 -0.23438,1.4375 0,1.6875 0.8125,2.53125 0.82813,0.84375 2.28125,0.84375 0.65625,0 1.26563,-0.14063 0.625,-0.15625 1.20312,-0.45312 l 0,1.5 z m 11.39792,0.34375 -2.21875,0 -4.34375,-4.98438 0,4.98438 -1.60937,0 0,-13.109384 1.60937,0 0,8.046884 4.1875,-4.25 2.14063,0 -4.375,4.29687 4.60937,5.01563 z m 9.75729,-5.15625 q 0,0.34375 -0.0156,0.57812 -0.0156,0.23438 -0.0312,0.4375 l -6.53125,0 q 0,1.4375 0.79687,2.20313 0.79688,0.76562 2.29688,0.76562 0.40625,0 0.8125,-0.0312 0.40625,-0.0469 0.78125,-0.0937 0.39062,-0.0625 0.73437,-0.125 0.34375,-0.0781 0.64063,-0.15625 l 0,1.32813 q -0.65625,0.1875 -1.48438,0.29687 -0.82812,0.125 -1.71875,0.125 -1.20312,0 -2.0625,-0.32812 -0.85937,-0.32813 -1.42187,-0.9375 -0.54688,-0.625 -0.8125,-1.51563 -0.26563,-0.89062 -0.26563,-2.03125 0,-0.98437 0.28125,-1.85937 0.29688,-0.875 0.82813,-1.53125 0.54687,-0.67188 1.32812,-1.0625 0.79688,-0.39063 1.79688,-0.39063 0.98437,0 1.73437,0.3125 0.75,0.29688 1.26563,0.85938 0.51562,0.5625 0.78125,1.375 0.26562,0.79687 0.26562,1.78125 z m -1.6875,-0.21875 q 0.0312,-0.625 -0.125,-1.14063 -0.14062,-0.51562 -0.45312,-0.89062 -0.3125,-0.375 -0.78125,-0.57813 -0.45313,-0.20312 -1.07813,-0.20312 -0.51562,0 -0.95312,0.20312 -0.4375,0.20313 -0.76563,0.57813 -0.3125,0.35937 -0.5,0.89062 -0.1875,0.51563 -0.23437,1.14063 l 4.89062,0 z m 3.60105,0.90625 q 0,-1.1875 0.3125,-2.10938 0.32812,-0.92187 0.92187,-1.54687 0.60938,-0.64063 1.4375,-0.96875 0.84375,-0.32813 1.875,-0.32813 0.45313,0 0.875,0.0625 0.4375,0.0469 0.85938,0.17188 l 0,-3.921884 1.625,0 0,13.109384 -1.45313,0 -0.0625,-1.76563 q -0.67187,0.98438 -1.46875,1.46875 -0.78125,0.46875 -1.70312,0.46875 -0.79688,0 -1.40625,-0.32812 -0.59375,-0.34375 -1,-0.95313 -0.40625,-0.60937 -0.60938,-1.45312 -0.20312,-0.85938 -0.20312,-1.90625 z m 1.64062,-0.0937 q 0,1.6875 0.5,2.51562 0.5,0.82813 1.40625,0.82813 0.60938,0 1.29688,-0.54688 0.6875,-0.54687 1.4375,-1.625 l 0,-4.3125 q -0.40625,-0.1875 -0.89063,-0.28125 -0.48437,-0.10937 -0.95312,-0.10937 -1.3125,0 -2.0625,0.85937 -0.73438,0.84375 -0.73438,2.67188 z m 27.10834,1.28125 q 0,0.85937 -0.35937,1.51562 -0.34375,0.64063 -0.98438,1.07813 -0.625,0.42187 -1.51562,0.64062 -0.875,0.21875 -1.95313,0.21875 -0.46875,0 -0.95312,-0.0469 -0.48438,-0.0312 -0.92188,-0.0937 -0.4375,-0.0469 -0.82812,-0.125 -0.39063,-0.0781 -0.70313,-0.15625 l 0,-1.59375 q 0.6875,0.25 1.54688,0.40625 0.875,0.14062 1.98437,0.14062 0.79688,0 1.35938,-0.125 0.5625,-0.125 0.92187,-0.35937 0.35938,-0.25 0.51563,-0.59375 0.17187,-0.35938 0.17187,-0.8125 0,-0.5 -0.28125,-0.84375 -0.26562,-0.34375 -0.71875,-0.60938 -0.4375,-0.28125 -1.01562,-0.5 -0.57813,-0.23437 -1.17188,-0.46875 -0.59375,-0.25 -1.17187,-0.53125 -0.5625,-0.28125 -1.01563,-0.67187 -0.4375,-0.39063 -0.71875,-0.90625 -0.26562,-0.51563 -0.26562,-1.23438 0,-0.625 0.26562,-1.21875 0.26563,-0.60937 0.8125,-1.07812 0.54688,-0.46875 1.40625,-0.75 0.85938,-0.296884 2.04688,-0.296884 0.29687,0 0.65625,0.0312 0.35937,0.0312 0.71875,0.0781 0.375,0.0469 0.73437,0.125 0.35938,0.0625 0.65625,0.125 l 0,1.48437 q -0.71875,-0.20312 -1.4375,-0.29687 -0.70312,-0.10938 -1.375,-0.10938 -1.42187,0 -2.09375,0.46875 -0.65625,0.46875 -0.65625,1.26563 0,0.5 0.26563,0.85937 0.28125,0.34375 0.71875,0.625 0.45312,0.28125 1.01562,0.51563 0.57813,0.21875 1.17188,0.46875 0.59375,0.23437 1.15625,0.51562 0.57812,0.28125 1.01562,0.6875 0.45313,0.39063 0.71875,0.92188 0.28125,0.51562 0.28125,1.25 z m 10.44482,-1.54688 q 0,1.25 -0.34375,2.1875 -0.34375,0.92188 -0.95312,1.53125 -0.60938,0.60938 -1.45313,0.92188 -0.82812,0.29687 -1.8125,0.29687 -0.4375,0 -0.89062,-0.0469 -0.4375,-0.0469 -0.89063,-0.15625 l 0,3.89062 -1.60937,0 0,-13.10937 1.4375,0 0.10937,1.5625 q 0.6875,-0.96875 1.46875,-1.34375 0.79688,-0.39063 1.71875,-0.39063 0.79688,0 1.39063,0.34375 0.60937,0.32813 1.01562,0.9375 0.40625,0.60938 0.60938,1.46875 0.20312,0.85938 0.20312,1.90625 z m -1.64062,0.0781 q 0,-0.73438 -0.10938,-1.34375 -0.10937,-0.60938 -0.34375,-1.04688 -0.23437,-0.4375 -0.59375,-0.6875 -0.35937,-0.25 -0.85937,-0.25 -0.3125,0 -0.625,0.10938 -0.3125,0.0937 -0.65625,0.32812 -0.32813,0.21875 -0.70313,0.59375 -0.375,0.375 -0.8125,0.9375 l 0,4.51563 q 0.45313,0.1875 0.9375,0.29687 0.5,0.0937 0.96875,0.0937 1.3125,0 2.04688,-0.875 0.75,-0.89062 0.75,-2.67187 z m 9.92914,4.75 -0.0312,-1.25 q -0.76563,0.75 -1.54688,1.09375 -0.78125,0.32812 -1.65625,0.32812 -0.79687,0 -1.35937,-0.20312 -0.5625,-0.20313 -0.9375,-0.5625 -0.35938,-0.35938 -0.53125,-0.84375 -0.17188,-0.48438 -0.17188,-1.04688 0,-1.40625 1.04688,-2.1875 1.04687,-0.79687 3.07812,-0.79687 l 1.9375,0 0,-0.82813 q 0,-0.8125 -0.53125,-1.3125 -0.53125,-0.5 -1.60937,-0.5 -0.79688,0 -1.5625,0.1875 -0.76563,0.17188 -1.57813,0.48438 l 0,-1.45313 q 0.29688,-0.10937 0.67188,-0.21875 0.39062,-0.10937 0.79687,-0.1875 0.42188,-0.0781 0.875,-0.125 0.45313,-0.0625 0.92188,-0.0625 0.84375,0 1.51562,0.1875 0.6875,0.1875 1.15625,0.57813 0.46875,0.375 0.71875,0.95312 0.25,0.5625 0.25,1.34375 l 0,6.42188 -1.45312,0 z m -0.17188,-4.23438 -2.0625,0 q -0.59375,0 -1.03125,0.125 -0.4375,0.10938 -0.71875,0.34375 -0.28125,0.21875 -0.42187,0.53125 -0.125,0.29688 -0.125,0.6875 0,0.28125 0.0781,0.53125 0.0937,0.23438 0.28125,0.42188 0.1875,0.1875 0.48438,0.3125 0.29687,0.10937 0.71875,0.10937 0.5625,0 1.28125,-0.34375 0.71875,-0.34375 1.51562,-1.07812 l 0,-1.64063 z m 4.81983,-5.07812 1.48437,0 0.0469,1.71875 q 0.82812,-1 1.625,-1.4375 0.79687,-0.45313 1.625,-0.45313 1.4375,0 2.1875,0.9375 0.75,0.9375 0.6875,2.78125 l -1.625,0 q 0.0156,-1.21875 -0.375,-1.76562 -0.375,-0.5625 -1.10938,-0.5625 -0.32812,0 -0.65625,0.125 -0.32812,0.10937 -0.6875,0.375 -0.34375,0.25 -0.73437,0.65625 -0.39063,0.39062 -0.82813,0.95312 l 0,5.98438 -1.64062,0 0,-9.3125 z m 17.25726,6.76562 q 0,0.5 -0.17188,0.89063 -0.15625,0.39062 -0.45312,0.6875 -0.28125,0.29687 -0.67188,0.51562 -0.375,0.21875 -0.8125,0.35938 -0.42187,0.125 -0.875,0.1875 -0.45312,0.0781 -0.89062,0.0781 -0.95313,0 -1.75,-0.0937 -0.78125,-0.0781 -1.54688,-0.26562 l 0,-1.48438 q 0.8125,0.23438 1.625,0.35938 0.8125,0.10937 1.60938,0.10937 1.15625,0 1.70312,-0.3125 0.5625,-0.3125 0.5625,-0.89062 0,-0.25 -0.0937,-0.45313 -0.0781,-0.20312 -0.3125,-0.375 -0.23437,-0.1875 -0.71875,-0.375 -0.48437,-0.20312 -1.32812,-0.45312 -0.64063,-0.1875 -1.17188,-0.42188 -0.53125,-0.23437 -0.92187,-0.5625 -0.39063,-0.32812 -0.60938,-0.76562 -0.21875,-0.4375 -0.21875,-1.03125 0,-0.39063 0.17188,-0.84375 0.1875,-0.46875 0.625,-0.85938 0.4375,-0.40625 1.17187,-0.67187 0.75,-0.26563 1.85938,-0.26563 0.54687,0 1.21875,0.0625 0.67187,0.0625 1.39062,0.20313 l 0,1.4375 q -0.76562,-0.17188 -1.45312,-0.26563 -0.67188,-0.0937 -1.17188,-0.0937 -0.60937,0 -1.03125,0.0937 -0.40625,0.0937 -0.65625,0.26563 -0.25,0.15625 -0.375,0.375 -0.10937,0.21875 -0.10937,0.46875 0,0.25 0.0937,0.45312 0.10937,0.20313 0.375,0.39063 0.26562,0.1875 0.73437,0.39062 0.46875,0.1875 1.23438,0.40625 0.82812,0.23438 1.39062,0.5 0.5625,0.26563 0.90625,0.59375 0.35938,0.32813 0.51563,0.73438 0.15625,0.40625 0.15625,0.92187 z m 10.75732,-2.60937 q 0,0.34375 -0.0156,0.57812 -0.0156,0.23438 -0.0312,0.4375 l -6.53125,0 q 0,1.4375 0.79687,2.20313 0.79688,0.76562 2.29688,0.76562 0.40625,0 0.8125,-0.0312 0.40625,-0.0469 0.78125,-0.0937 0.39062,-0.0625 0.73437,-0.125 0.34375,-0.0781 0.64063,-0.15625 l 0,1.32813 q -0.65625,0.1875 -1.48438,0.29687 -0.82812,0.125 -1.71875,0.125 -1.20312,0 -2.0625,-0.32812 -0.85937,-0.32813 -1.42187,-0.9375 -0.54688,-0.625 -0.8125,-1.51563 -0.26563,-0.89062 -0.26563,-2.03125 0,-0.98437 0.28125,-1.85937 0.29688,-0.875 0.82813,-1.53125 0.54687,-0.67188 1.32812,-1.0625 0.79688,-0.39063 1.79688,-0.39063 0.98437,0 1.73437,0.3125 0.75,0.29688 1.26563,0.85938 0.51562,0.5625 0.78125,1.375 0.26562,0.79687 0.26562,1.78125 z m -1.6875,-0.21875 q 0.0312,-0.625 -0.125,-1.14063 -0.14062,-0.51562 -0.45312,-0.89062 -0.3125,-0.375 -0.78125,-0.57813 -0.45313,-0.20312 -1.07813,-0.20312 -0.51562,0 -0.95312,0.20312 -0.4375,0.20313 -0.76563,0.57813 -0.3125,0.35937 -0.5,0.89062 -0.1875,0.51563 -0.23437,1.14063 l 4.89062,0 z m 23.20209,5.375 -1.8125,0 -0.84375,-2.64063 -5.04687,0 -0.84375,2.64063 -1.71875,0 4.03125,-12.125 2.26562,0 3.96875,12.125 z m -3.125,-4.125 -2.04687,-6.48438 -2.04688,6.48438 4.09375,0 z m 11.99164,4.125 -1.4375,0 -0.0625,-1.5 q -0.42188,0.48437 -0.79688,0.8125 -0.375,0.3125 -0.75,0.51562 -0.35937,0.1875 -0.73437,0.26563 -0.375,0.0781 -0.79688,0.0781 -1.4375,0 -2.17187,-0.84375 -0.73438,-0.84375 -0.73438,-2.5625 l 0,-6.07812 1.60938,0 0,5.95312 q 0,2.14063 1.625,2.14063 0.29687,0 0.57812,-0.0781 0.28125,-0.0937 0.59375,-0.3125 0.3125,-0.21875 0.65625,-0.57812 0.35938,-0.375 0.8125,-0.95313 l 0,-6.17187 1.60938,0 0,9.3125 z m 10.27295,-0.125 q -0.54688,0.14062 -1.125,0.1875 -0.57813,0.0625 -1.1875,0.0625 -1.75,0 -2.625,-0.78125 -0.85938,-0.79688 -0.85938,-2.4375 l 0,-4.85938 -2.60937,0 0,-1.35937 2.60937,0 0,-2.5625 1.625,-0.421884 0,2.984384 4.17188,0 0,1.35937 -4.17188,0 0,4.71875 q 0,1 0.53125,1.5 0.53125,0.5 1.5625,0.5 0.45313,0 0.98438,-0.0625 0.53125,-0.0781 1.09375,-0.21875 l 0,1.39063 z m 10.86664,-4.60938 q 0,1.09375 -0.3125,2 -0.29688,0.89063 -0.875,1.54688 -0.57813,0.64062 -1.40625,1 -0.82813,0.35937 -1.875,0.35937 -1,0 -1.79688,-0.3125 -0.78125,-0.3125 -1.34375,-0.90625 -0.54687,-0.60937 -0.84375,-1.5 -0.28125,-0.89062 -0.28125,-2.0625 0,-1.07812 0.29688,-1.96875 0.3125,-0.90625 0.875,-1.54687 0.57812,-0.64063 1.40625,-1 0.82812,-0.35938 1.875,-0.35938 1,0 1.79687,0.3125 0.79688,0.3125 1.34375,0.92188 0.5625,0.59375 0.84375,1.48437 0.29688,0.89063 0.29688,2.03125 z m -1.65625,0.0781 q 0,-0.85938 -0.1875,-1.5 -0.1875,-0.65625 -0.54688,-1.07813 -0.34375,-0.4375 -0.85937,-0.65625 -0.5,-0.21875 -1.125,-0.21875 -0.71875,0 -1.23438,0.28125 -0.51562,0.28125 -0.84375,0.76563 -0.32812,0.46875 -0.48437,1.09375 -0.15625,0.625 -0.15625,1.3125 0,0.85937 0.1875,1.51562 0.20312,0.64063 0.54687,1.07813 0.35938,0.42187 0.85938,0.64062 0.5,0.21875 1.125,0.21875 0.73437,0 1.25,-0.28125 0.51562,-0.28125 0.84375,-0.75 0.32812,-0.46875 0.46875,-1.09375 0.15625,-0.64062 0.15625,-1.32812 z m 10.31982,0.35937 -5.54688,0 0,-1.51562 5.54688,0 0,1.51562 z m 11.02289,4.29688 -6.90625,0 0,-12.125 6.90625,0 0,1.39062 -5.25,0 0,3.75 5.03125,0 0,1.40625 -5.03125,0 0,4.17188 5.25,0 0,1.40625 z m 2.97607,-9.3125 1.4375,0 0.0625,1.5 q 0.40625,-0.48438 0.78125,-0.79688 0.39063,-0.32812 0.75,-0.51562 0.375,-0.20313 0.75,-0.28125 0.39063,-0.0781 0.79688,-0.0781 1.4375,0 2.17187,0.85938 0.73438,0.84375 0.73438,2.54687 l 0,6.07813 -1.60938,0 0,-5.95313 q 0,-1.09375 -0.40625,-1.60937 -0.40625,-0.53125 -1.21875,-0.53125 -0.29687,0 -0.57812,0.0937 -0.28125,0.0937 -0.59375,0.3125 -0.29688,0.20312 -0.65625,0.57812 -0.35938,0.375 -0.8125,0.9375 l 0,6.17188 -1.60938,0 0,-9.3125 z m 17.49164,8.96875 q -0.625,0.23437 -1.29688,0.34375 -0.65625,0.125 -1.35937,0.125 -2.21875,0 -3.40625,-1.1875 -1.1875,-1.20313 -1.1875,-3.5 0,-1.10938 0.34375,-2 0.34375,-0.90625 0.95312,-1.54688 0.625,-0.64062 1.48438,-0.98437 0.875,-0.34375 1.90625,-0.34375 0.73437,0 1.35937,0.10937 0.625,0.0937 1.20313,0.3125 l 0,1.54688 q -0.59375,-0.3125 -1.23438,-0.45313 -0.625,-0.15625 -1.28125,-0.15625 -0.625,0 -1.1875,0.25 -0.54687,0.23438 -0.96875,0.6875 -0.40625,0.4375 -0.65625,1.07813 -0.23437,0.64062 -0.23437,1.4375 0,1.6875 0.8125,2.53125 0.82812,0.84375 2.28125,0.84375 0.65625,0 1.26562,-0.14063 0.625,-0.15625 1.20313,-0.45312 l 0,1.5 z m 11.13232,-4.39063 q 0,1.09375 -0.3125,2 -0.29687,0.89063 -0.875,1.54688 -0.57812,0.64062 -1.40625,1 -0.82812,0.35937 -1.875,0.35937 -1,0 -1.79687,-0.3125 -0.78125,-0.3125 -1.34375,-0.90625 -0.54688,-0.60937 -0.84375,-1.5 -0.28125,-0.89062 -0.28125,-2.0625 0,-1.07812 0.29687,-1.96875 0.3125,-0.90625 0.875,-1.54687 0.57813,-0.64063 1.40625,-1 0.82813,-0.35938 1.875,-0.35938 1,0 1.79688,0.3125 0.79687,0.3125 1.34375,0.92188 0.5625,0.59375 0.84375,1.48437 0.29687,0.89063 0.29687,2.03125 z m -1.65625,0.0781 q 0,-0.85938 -0.1875,-1.5 -0.1875,-0.65625 -0.54687,-1.07813 -0.34375,-0.4375 -0.85938,-0.65625 -0.5,-0.21875 -1.125,-0.21875 -0.71875,0 -1.23437,0.28125 -0.51563,0.28125 -0.84375,0.76563 -0.32813,0.46875 -0.48438,1.09375 -0.15625,0.625 -0.15625,1.3125 0,0.85937 0.1875,1.51562 0.20313,0.64063 0.54688,1.07813 0.35937,0.42187 0.85937,0.64062 0.5,0.21875 1.125,0.21875 0.73438,0 1.25,-0.28125 0.51563,-0.28125 0.84375,-0.75 0.32813,-0.46875 0.46875,-1.09375 0.15625,-0.64062 0.15625,-1.32812 z m 3.33539,0.1875 q 0,-1.1875 0.3125,-2.10938 0.32813,-0.92187 0.92188,-1.54687 0.60937,-0.64063 1.4375,-0.96875 0.84375,-0.32813 1.875,-0.32813 0.45312,0 0.875,0.0625 0.4375,0.0469 0.85937,0.17188 l 0,-3.921884 1.625,0 0,13.109384 -1.45312,0 -0.0625,-1.76563 q -0.67188,0.98438 -1.46875,1.46875 -0.78125,0.46875 -1.70313,0.46875 -0.79687,0 -1.40625,-0.32812 -0.59375,-0.34375 -1,-0.95313 -0.40625,-0.60937 -0.60937,-1.45312 -0.20313,-0.85938 -0.20313,-1.90625 z m 1.64063,-0.0937 q 0,1.6875 0.5,2.51562 0.5,0.82813 1.40625,0.82813 0.60937,0 1.29687,-0.54688 0.6875,-0.54687 1.4375,-1.625 l 0,-4.3125 q -0.40625,-0.1875 -0.89062,-0.28125 -0.48438,-0.10937 -0.95313,-0.10937 -1.3125,0 -2.0625,0.85937 -0.73437,0.84375 -0.73437,2.67188 z m 16.96045,-0.59375 q 0,0.34375 -0.0156,0.57812 -0.0156,0.23438 -0.0312,0.4375 l -6.53125,0 q 0,1.4375 0.79688,2.20313 0.79687,0.76562 2.29687,0.76562 0.40625,0 0.8125,-0.0312 0.40625,-0.0469 0.78125,-0.0937 0.39063,-0.0625 0.73438,-0.125 0.34375,-0.0781 0.64062,-0.15625 l 0,1.32813 q -0.65625,0.1875 -1.48437,0.29687 -0.82813,0.125 -1.71875,0.125 -1.20313,0 -2.0625,-0.32812 -0.85938,-0.32813 -1.42188,-0.9375 -0.54687,-0.625 -0.8125,-1.51563 -0.26562,-0.89062 -0.26562,-2.03125 0,-0.98437 0.28125,-1.85937 0.29687,-0.875 0.82812,-1.53125 0.54688,-0.67188 1.32813,-1.0625 0.79687,-0.39063 1.79687,-0.39063 0.98438,0 1.73438,0.3125 0.75,0.29688 1.26562,0.85938 0.51563,0.5625 0.78125,1.375 0.26563,0.79687 0.26563,1.78125 z m -1.6875,-0.21875 q 0.0312,-0.625 -0.125,-1.14063 -0.14063,-0.51562 -0.45313,-0.89062 -0.3125,-0.375 -0.78125,-0.57813 -0.45312,-0.20312 -1.07812,-0.20312 -0.51563,0 -0.95313,0.20312 -0.4375,0.20313 -0.76562,0.57813 -0.3125,0.35937 -0.5,0.89062 -0.1875,0.51563 -0.23438,1.14063 l 4.89063,0 z m 4.44476,-3.9375 1.48438,0 0.0469,1.71875 q 0.82813,-1 1.625,-1.4375 0.79688,-0.45313 1.625,-0.45313 1.4375,0 2.1875,0.9375 0.75,0.9375 0.6875,2.78125 l -1.625,0 q 0.0156,-1.21875 -0.375,-1.76562 -0.375,-0.5625 -1.10937,-0.5625 -0.32813,0 -0.65625,0.125 -0.32813,0.10937 -0.6875,0.375 -0.34375,0.25 -0.73438,0.65625 -0.39062,0.39062 -0.82812,0.95312 l 0,5.98438 -1.64063,0 0,-9.3125 z" style="fill:#000;fill-rule:nonzero"/><path id="path133" d="m 174.00803,202.6693 -18.69881,0 0,148.35432 842.99457,0 0,-148.29134 -17.96502,0" style="fill:#000;fill-opacity:0;fill-rule:nonzero"/><g id="g5198"><path style="fill:#d6d7ef;stroke:#000;stroke-width:1.29999995;stroke-linecap:butt;stroke-linejoin:round;stroke-miterlimit:10;stroke-dasharray:none" id="path23" d="m 194.46483,105.96779 112.24609,0 0,191.19875 -112.24609,0 z"/><text style="font-size:14px;font-style:normal;font-variant:normal;font-weight:400;font-stretch:normal;text-align:center;line-height:125%;letter-spacing:0;word-spacing:0;text-anchor:middle;fill:#000;fill-opacity:1;stroke:none;font-family:Monospace;-inkscape-font-specification:Monospace" id="text4861" x="250.437" y="189.071" xml:space="preserve"><tspan id="tspan4863" x="250.437" y="189.071">Layer 1</tspan><tspan id="tspan4867" x="250.437" y="224.071">1024 Nodes</tspan></text></g><path id="path137" d="m 980.33875,202.6693 39.96855,0" style="fill:#000;fill-opacity:0;fill-rule:nonzero"/><path id="path139" d="m 967.61722,202.6693 46.34948,0" style="stroke:#000;stroke-width:2.09690356;stroke-linecap:butt;stroke-linejoin:round;stroke-miterlimit:10;stroke-dasharray:none"/><path id="path141" d="m 1014.3072,204.32103 4.5381,-1.65173 -4.5381,-1.65174 z" style="fill:#000;fill-rule:evenodd;stroke:#000;stroke-width:3.99999999;stroke-linecap:butt;stroke-miterlimit:10;stroke-dasharray:none"/><path id="path143" d="m 515.4803,313.5223 63.74805,0 0,34.04724 -63.74805,0 z" style="fill:#000;fill-opacity:0;fill-rule:nonzero"/><path id="path147" d="m 486.42258,351.02362 103.90549,0 0,34.04724 -103.90549,0 z" style="fill:#000;fill-opacity:0;fill-rule:nonzero"/><text id="text3780" x="-202.539" y="93.438" transform="matrix(0,-1.0178306,0.98248177,0,0,0)" xml:space="preserve" style="font-size:11.60725021000000012px;font-style:normal;font-weight:400;line-height:125%;letter-spacing:0;word-spacing:0;fill:#bc2122;fill-opacity:1;stroke:none;font-family:Sans"><tspan id="tspan3058" x="-198.465" y="93.438" style="font-size:13.54179096000000015px;font-style:normal;font-variant:normal;font-weight:700;font-stretch:normal;text-align:center;text-anchor:middle;font-family:Monospace;-inkscape-font-specification:Monospace Bold;fill:#bc2122">Generalized Urban </tspan><tspan id="tspan3632" x="-202.539" y="110.365" style="font-size:13.54179096000000015px;font-style:normal;font-variant:normal;font-weight:700;font-stretch:normal;text-align:center;text-anchor:middle;font-family:Monospace;-inkscape-font-specification:Monospace Bold;fill:#bc2122">Target Database</tspan></text><text id="text3986" x="156.216" y="401.026" xml:space="preserve" style="font-size:12px;font-style:normal;font-weight:400;line-height:125%;letter-spacing:0;word-spacing:0;fill:#55679e;fill-opacity:1;stroke:none;font-family:Sans"><tspan style="font-size:14px;font-style:normal;font-variant:normal;font-weight:400;font-stretch:normal;fill:#55679e;fill-opacity:1;font-family:Monospace;-inkscape-font-specification:Monospace" id="tspan3988" x="156.216" y="401.026">Training Phase (X = X&apos;)</tspan></text><text id="text3990" x="124.601" y="208.236" xml:space="preserve" style="font-size:12px;font-style:normal;font-weight:400;line-height:125%;letter-spacing:0;word-spacing:0;fill:#000;fill-opacity:1;stroke:none;font-family:Sans"><tspan style="font-size:17.99999996px;font-style:normal;font-variant:normal;font-weight:700;font-stretch:normal;font-family:Monospace;-inkscape-font-specification:Monospace Bold" id="tspan3992" x="124.601" y="208.236">X</tspan></text><g id="g5191" transform="translate(-2.9587402,0)"><path style="fill:#d6d7ef;stroke:#000;stroke-width:1.40901649;stroke-linecap:butt;stroke-linejoin:round" id="path33" d="m 331.20713,127.94242 108.28391,0 0,147.24949 -108.28391,0 z"/><text style="font-size:14px;font-style:normal;font-variant:normal;font-weight:400;font-stretch:normal;text-align:center;line-height:125%;letter-spacing:0;word-spacing:0;text-anchor:middle;fill:#000;fill-opacity:1;stroke:none;font-family:Monospace;-inkscape-font-specification:Monospace" id="text4861-4" x="385.551" y="189.163" xml:space="preserve"><tspan id="tspan4863-8" x="385.551" y="189.163">Layer 2</tspan><tspan id="tspan4867-6" x="385.551" y="224.163">512 Nodes</tspan></text></g><g id="g5184" transform="translate(-3.8386841,0)"><path style="fill:#d6d7ef;stroke:#000;stroke-width:1.25370312;stroke-linecap:butt;stroke-linejoin:round" id="path43" d="m 463.81191,143.3624 108.43917,0 0,116.40953 -108.43917,0 z"/><text style="font-size:14px;font-style:normal;font-variant:normal;font-weight:400;font-stretch:normal;text-align:center;line-height:125%;letter-spacing:0;word-spacing:0;text-anchor:middle;fill:#000;fill-opacity:1;stroke:none;font-family:Monospace;-inkscape-font-specification:Monospace" id="text4861-4-8" x="518.202" y="189.163" xml:space="preserve"><tspan id="tspan4863-8-5" x="518.202" y="189.163">Layer 3</tspan><tspan id="tspan4867-6-1" x="518.202" y="224.163">256 Nodes</tspan></text></g><g id="g5177" transform="translate(-4.718689,0)"><path style="fill:#d2e5cc;stroke:#000;stroke-width:1;stroke-linecap:butt;stroke-linejoin:round" id="path53" d="m 596.36755,164.62228 108.69293,0 0,73.88976 -108.69293,0 z"/><text style="font-size:14px;font-style:normal;font-variant:normal;font-weight:400;font-stretch:normal;text-align:center;line-height:125%;letter-spacing:0;word-spacing:0;text-anchor:middle;fill:#000;fill-opacity:1;stroke:none;font-family:Monospace;-inkscape-font-specification:Monospace" id="text4861-4-8-9" x="650.95" y="189.071" xml:space="preserve"><tspan id="tspan4863-8-5-9" x="650.95" y="189.071">Layer 4</tspan><tspan id="tspan4867-6-1-0" x="650.95" y="224.071">64 Nodes</tspan></text></g><g id="g5165" transform="translate(-5.7626343,0)"><path style="fill:#f9e7e7;stroke:#000;stroke-width:1.25370312;stroke-linecap:butt;stroke-linejoin:round" id="path43-8" d="m 729.34084,143.3624 108.43917,0 0,116.40953 -108.43917,0 z"/><text style="font-size:14px;font-style:normal;font-variant:normal;font-weight:400;font-stretch:normal;text-align:center;line-height:125%;letter-spacing:0;word-spacing:0;text-anchor:middle;fill:#000;fill-opacity:1;stroke:none;font-family:Monospace;-inkscape-font-specification:Monospace" id="text4861-4-8-6" x="783.762" y="189.071" xml:space="preserve"><tspan id="tspan4863-8-5-4" x="783.762" y="189.071">Layer 5</tspan><tspan id="tspan4867-6-1-9" x="783.762" y="224.071">512 Nodes</tspan></text></g><g id="g5158"><path style="fill:#f9e7e7;stroke:#000;stroke-width:1.29999995;stroke-linecap:butt;stroke-linejoin:round;stroke-miterlimit:10;stroke-dasharray:none" id="path23-6" d="m 853.47723,105.96779 112.24609,0 0,191.19875 -112.24609,0 z"/><text style="font-size:14px;font-style:normal;font-variant:normal;font-weight:400;font-stretch:normal;text-align:center;line-height:125%;letter-spacing:0;word-spacing:0;text-anchor:middle;fill:#000;fill-opacity:1;stroke:none;font-family:Monospace;-inkscape-font-specification:Monospace" id="text4861-0" x="909.45" y="189.163" xml:space="preserve"><tspan id="tspan4863-89" x="909.45" y="189.163">Layer 6</tspan><tspan id="tspan4867-1" x="909.45" y="224.163">1024 Nodes</tspan></text></g><text id="text5069" x="363.822" y="311.489" xml:space="preserve" style="font-size:12px;font-style:normal;font-weight:400;line-height:125%;letter-spacing:0;word-spacing:0;fill:#c2c3e6;fill-opacity:1;stroke:none;font-family:Sans"><tspan style="font-size:14px;font-style:normal;font-variant:normal;font-weight:400;font-stretch:normal;fill:#c2c3e6;font-family:Monospace;-inkscape-font-specification:Monospace" id="tspan5071" x="363.822" y="311.489">Encoder</tspan></text><rect id="rect5067-4" width="396.209" height="233.147" x="575.126" y="91.029" style="fill:none;stroke:#f4cece;stroke-width:2.04949808000000022;stroke-linecap:round;stroke-linejoin:bevel;stroke-miterlimit:10;stroke-opacity:1;stroke-dasharray:none;stroke-dashoffset:0"/><text id="text5205" x="752.19" y="315.872" xml:space="preserve" style="font-size:12px;font-style:normal;font-weight:400;line-height:125%;letter-spacing:0;word-spacing:0;fill:#000;fill-opacity:1;stroke:none;font-family:Sans"><tspan style="font-size:14px;font-style:normal;font-variant:normal;font-weight:400;font-stretch:normal;fill:#f4cece;fill-opacity:1;font-family:Monospace;-inkscape-font-specification:Monospace" id="tspan5207" x="752.19" y="315.872">Decoder</tspan></text><text id="text3780-9" x="637.059" y="139.604" transform="scale(1.0178306,0.98248177)" xml:space="preserve" style="font-size:11.60725021px;font-style:normal;font-weight:400;line-height:125%;letter-spacing:0;word-spacing:0;fill:#bc2122;fill-opacity:1;stroke:none;font-family:Sans"><tspan id="tspan3632-0" x="637.059" y="139.604" style="font-size:13.54179096px;font-style:normal;font-variant:normal;font-weight:700;font-stretch:normal;text-align:center;text-anchor:middle;fill:#bc2122;font-family:Monospace;-inkscape-font-specification:Monospace Bold">Representation</tspan><tspan id="tspan5235" x="637.059" y="156.532" style="font-size:13.54179096px;font-style:normal;font-variant:normal;font-weight:700;font-stretch:normal;text-align:center;text-anchor:middle;fill:#bc2122;font-family:Monospace;-inkscape-font-specification:Monospace Bold">Layer</tspan></text><path id="path5237" d="m 646.11214,238.7244 0,172.70568" transform="translate(0,-2.2779706e-6)" style="fill:none;stroke:#000;stroke-width:2;stroke-linecap:butt;stroke-linejoin:miter;stroke-opacity:1;stroke-miterlimit:10;stroke-dasharray:none"/><path id="path141-6" d="m 644.89875,412.2294 1.65173,4.5381 1.65174,-4.5381 z" style="fill:#000;fill-rule:evenodd;stroke:#000;stroke-width:3.99999999;stroke-linecap:butt;stroke-miterlimit:10;stroke-dasharray:none"/><text id="text3780-9-0" x="636.609" y="469.869" transform="scale(1.0178306,0.98248177)" xml:space="preserve" style="font-size:11.60725021px;font-style:normal;font-weight:400;line-height:125%;letter-spacing:0;word-spacing:0;fill:#bc2122;fill-opacity:1;stroke:none;font-family:Sans"><tspan id="tspan5235-3" x="636.609" y="469.869" style="font-size:13.54179096px;font-style:normal;font-variant:normal;font-weight:700;font-stretch:normal;text-align:center;text-anchor:middle;fill:#bc2122;font-family:Monospace;-inkscape-font-specification:Monospace Bold">Extracted</tspan><tspan id="tspan5653" x="636.609" y="486.796" style="font-size:13.54179096px;font-style:normal;font-variant:normal;font-weight:700;font-stretch:normal;text-align:center;text-anchor:middle;fill:#bc2122;font-family:Monospace;-inkscape-font-specification:Monospace Bold">Optimum Features</tspan></text><text id="text3990-7" x="1033.543" y="206.738" xml:space="preserve" style="font-size:12px;font-style:normal;font-weight:400;line-height:125%;letter-spacing:0;word-spacing:0;fill:#000;fill-opacity:1;stroke:none;font-family:Sans"><tspan style="font-size:18px;font-style:normal;font-variant:normal;font-weight:700;font-stretch:normal;font-family:Monospace;-inkscape-font-specification:Monospace Bold" id="tspan3992-8" x="1033.543" y="206.738">X&apos;</tspan></text><text id="text5676" x="637.989" y="440.939" xml:space="preserve" style="font-size:12px;font-style:normal;font-weight:400;line-height:125%;letter-spacing:0;word-spacing:0;fill:#000;fill-opacity:1;stroke:none;font-family:Sans"><tspan style="font-size:16px;font-style:normal;font-variant:normal;font-weight:700;font-stretch:normal;font-family:Monospace;-inkscape-font-specification:Monospace Bold" id="tspan5678" x="637.989" y="440.939">W<tspan id="tspan5682" style="font-size:16px;font-weight:700;baseline-shift:sub;-inkscape-font-specification:Monospace Bold">r</tspan></tspan></text></svg>